 <svg  version="1.0" xmlns="http://www.w3.org/2000/svg"  width="450.000000pt" height="417.000000pt" viewBox="0 0 450.000000 417.000000"  preserveAspectRatio="xMidYMid meet">  <g transform="translate(0.000000,417.000000) scale(0.100000,-0.100000)" fill="#ffffff" stroke="none"> <path d="M2072 3570 c-36 -22 -56 -63 -47 -97 3 -12 26 -44 53 -71 26 -27 54 -57 62 -67 16 -21 14 -86 -3 -97 -7 -4 -72 -8 -145 -8 l-134 0 -29 -29 c-16 -16 -29 -39 -29 -50 0 -20 -41 -64 -61 -67 -5 -1 -15 -2 -21 -3 -7 -1 -20 -13 -28 -29 -14 -23 -16 -98 -15 -577 1 -595 0 -591 55 -601 36 -8 85 -57 77 -78 -4 -9 -2 -16 3 -16 6 0 10 -6 10 -13 0 -37 38 -41 480 -41 422 -1 430 0 451 20 11 12 21 27 23 35 7 43 21 60 68 83 27 14 56 33 64 43 10 15 13 124 14 566 0 496 -1 551 -16 577 -10 17 -29 30 -46 34 -32 6 -78 50 -78 75 0 9 -9 27 -20 41 -18 24 -23 25 -157 28 -76 2 -141 7 -145 10 -4 4 -10 24 -12 44 -6 41 17 78 83 135 36 30 41 40 41 76 0 37 -5 45 -35 66 -34 23 -44 24 -233 27 -182 3 -200 2 -230 -16z m450 -37 c33 -30 18 -93 -23 -93 -9 0 -33 -25 -53 -55 l-36 -55 -115 0 -115 0 -36 54 c-22 33 -45 56 -57 58 -32 5 -45 50 -23 82 l16 26 212 0 c183 0 214 -2 230 -17z m-112 -273 l0 -51 -112 3 -113 3 -3 42 -3 42 113 4 c62 1 114 4 116 5 1 1 2 -21 2 -48z m330 -82 c0 -56 67 -128 118 -128 12 0 22 -9 26 -22 8 -30 8 -1032 0 -1079 -5 -32 -11 -38 -44 -48 -53 -16 -88 -52 -96 -100 l-7 -41 -442 0 -443 0 -7 37 c-9 48 -60 99 -108 108 l-37 7 2 566 3 566 32 7 c64 13 90 43 107 120 l6 26 445 0 c435 0 445 0 445 -19z"/> <path d="M1874 3143 c-25 -76 -51 -109 -100 -122 l-29 -7 -3 -535 -2 -535 38 -17 c46 -20 76 -51 89 -92 l10 -30 416 -3 415 -2 11 33 c14 41 56 83 99 98 l32 11 0 533 0 533 -47 23 c-39 20 -53 34 -73 76 l-25 53 -413 0 c-384 0 -413 -1 -418 -17z m825 -51 c12 -43 42 -79 77 -92 l24 -10 0 -220 0 -220 -25 -10 c-46 -18 -44 -104 3 -125 22 -10 22 -12 22 -232 0 -210 -1 -223 -19 -223 -26 0 -69 -43 -76 -77 -4 -15 -8 -34 -11 -40 -3 -10 -92 -13 -402 -13 l-399 0 -6 37 c-7 40 -51 93 -79 93 -17 0 -18 14 -18 224 0 212 1 225 19 231 10 3 24 19 31 36 15 36 1 78 -30 86 -19 5 -20 15 -20 229 l0 224 33 13 c30 13 50 43 71 110 5 16 33 17 400 17 l395 0 10 -38z m121 -612 c0 -48 -1 -50 -20 -38 -30 19 -33 39 -9 65 13 12 24 23 26 23 2 0 3 -23 3 -50z m-1015 20 c17 -18 17 -21 1 -45 -22 -33 -36 -23 -36 26 0 44 8 48 35 19z"/> <path d="M2088 3113 l-177 -3 -6 -30 c-3 -16 -15 -40 -25 -53 l-19 -24 63 -5 c168 -14 310 -171 355 -393 l18 -89 7 52 c10 79 41 171 79 233 31 52 32 56 13 53 -12 -3 -15 -2 -8 2 18 9 15 36 -5 32 -12 -2 -22 -25 -35 -77 -10 -41 -25 -86 -34 -100 l-17 -25 -22 45 c-12 24 -28 68 -35 97 -12 54 -22 68 -40 57 -8 -5 -7 -11 1 -21 9 -11 8 -14 -5 -14 -22 0 -31 27 -16 45 16 19 44 19 60 1 6 -8 18 -43 26 -77 20 -85 28 -98 43 -70 7 12 16 47 21 78 5 30 15 61 21 69 18 21 60 18 66 -6 5 -18 8 -17 44 14 66 56 135 88 204 94 l63 5 -24 35 c-13 19 -24 43 -24 53 0 17 -14 18 -180 21 -116 2 -180 -1 -180 -7 1 -5 14 -25 30 -44 l29 -34 -37 -53 c-20 -29 -40 -53 -44 -54 -7 0 -78 94 -78 105 0 4 14 24 30 45 30 38 37 52 23 48 -5 -1 -88 -4 -185 -5z m122 -37 c-1 -29 -17 -38 -51 -28 -30 10 -98 15 -153 13 -20 -1 -20 -1 0 -16 12 -9 42 -14 82 -15 48 0 66 -4 82 -20 27 -27 25 -56 -4 -76 -23 -14 -28 -14 -59 1 -18 8 -53 35 -76 59 -39 39 -47 44 -77 39 -37 -6 -42 3 -23 38 9 18 20 20 145 18 90 -1 134 -6 134 -13z m424 8 c9 -4 21 -15 26 -25 8 -14 6 -20 -9 -28 -14 -8 -24 -5 -45 12 -21 19 -36 22 -91 20 -36 -1 -74 -7 -85 -13 -10 -5 -23 -10 -28 -10 -11 0 -23 36 -14 44 7 8 226 8 246 0z m-44 -42 c0 -12 -91 -98 -118 -112 -30 -15 -72 10 -72 42 0 41 28 58 96 58 35 0 66 5 69 10 7 12 25 13 25 2z m-285 -175 c2 -21 -1 -25 -12 -16 -16 14 -17 52 -1 47 7 -3 13 -16 13 -31z"/> <path d="M2070 2980 c44 -37 67 -45 85 -30 38 31 3 60 -71 60 l-48 0 34 -30z"/> <path d="M2432 2998 c-16 -16 -15 -33 2 -47 17 -14 59 4 90 38 l19 21 -49 0 c-28 0 -55 -5 -62 -12z"/> <path d="M2261 3061 l-31 -39 31 -38 c36 -46 39 -49 39 -42 0 3 -13 22 -30 43 l-30 37 28 34 27 33 34 -37 c35 -38 33 -29 -3 21 -11 15 -23 27 -27 27 -4 0 -21 -17 -38 -39z"/> <path d="M1823 2973 c-10 -3 -13 -53 -13 -199 l0 -193 37 25 c20 13 56 30 80 35 41 11 42 12 28 32 -8 12 -15 33 -16 47 l0 25 -10 -25 c-18 -45 -40 -50 -74 -15 -31 30 -32 69 -2 98 18 19 20 28 13 49 -12 33 -3 55 28 69 61 28 166 -34 170 -99 1 -24 9 -37 31 -51 38 -24 111 -99 103 -106 -3 -4 -27 14 -53 40 -73 70 -81 73 -88 22 -3 -23 -8 -51 -12 -62 -5 -17 2 -23 42 -39 30 -13 70 -43 110 -84 l63 -64 -18 -31 c-31 -56 -116 -134 -161 -148 -35 -10 -40 -15 -34 -33 3 -12 9 -36 12 -55 l6 -34 50 46 c28 24 61 63 75 86 14 22 28 41 33 41 29 1 -46 -105 -110 -154 -41 -32 -53 -47 -53 -68 0 -45 -47 -89 -102 -95 -41 -5 -50 -2 -73 21 -20 20 -25 33 -21 50 4 15 0 28 -9 36 -21 17 -19 73 3 93 23 21 40 21 61 3 14 -12 19 -10 38 20 22 33 22 34 2 34 -24 0 -72 23 -116 57 l-33 24 0 -195 0 -194 38 -6 c94 -16 214 35 294 124 129 145 166 330 107 540 -57 206 -202 342 -362 339 -29 0 -58 -3 -64 -6z m319 -160 c15 -20 25 -40 21 -46 -5 -8 -8 -7 -11 1 -2 7 -7 10 -12 7 -11 -7 -37 26 -45 58 -10 36 11 28 47 -20z m-2 -137 c26 -25 39 -31 52 -25 19 10 34 -9 42 -54 4 -21 1 -27 -13 -27 -10 0 -25 7 -32 17 -8 9 -37 31 -66 49 -40 27 -50 38 -46 54 7 28 23 25 63 -14z m-256 -395 c3 -5 -1 -12 -10 -15 -25 -10 -34 -7 -34 9 0 16 35 21 44 6z m236 -9 c0 -5 -9 -17 -19 -26 -20 -18 -24 -5 -8 22 9 14 27 16 27 4z m70 -57 c0 -13 -75 -107 -92 -116 -19 -10 -20 -9 -14 17 4 15 17 35 28 43 12 8 30 25 41 38 19 21 37 30 37 18z m-291 -207 c1 -5 -8 -8 -19 -8 -19 0 -40 27 -40 50 0 12 59 -30 59 -42z"/> <path d="M2627 2969 c-178 -42 -307 -251 -307 -498 0 -152 49 -280 148 -383 80 -84 198 -131 282 -113 l30 7 0 189 0 189 -42 -30 c-23 -17 -59 -33 -80 -36 -42 -7 -44 -9 -24 -30 8 -7 16 -19 18 -26 4 -10 8 -10 21 1 14 11 21 11 42 -3 33 -22 42 -59 21 -91 -9 -13 -16 -34 -16 -45 0 -29 -44 -70 -75 -70 -58 0 -105 47 -105 104 0 15 -13 33 -35 50 -20 15 -47 39 -61 54 -34 37 -94 136 -94 156 0 15 2 15 24 -1 13 -10 22 -26 21 -35 -5 -22 63 -115 110 -151 20 -16 38 -27 39 -25 2 1 6 28 9 59 l7 55 -36 13 c-33 12 -174 144 -174 163 0 4 28 29 61 57 76 61 125 76 227 68 95 -8 116 1 74 32 -45 31 -109 51 -149 46 -50 -6 -117 -49 -150 -95 -27 -38 -43 -50 -43 -32 0 5 13 27 29 49 33 46 83 80 130 89 27 6 32 10 27 28 -3 12 -6 42 -6 69 0 28 -5 47 -11 47 -6 0 -38 -28 -70 -61 -33 -34 -62 -60 -64 -57 -10 10 64 94 103 118 24 14 42 33 42 43 0 21 29 81 36 74 3 -2 0 -16 -6 -31 -19 -50 -14 -57 27 -40 68 29 143 -8 143 -71 0 -32 -25 -65 -50 -65 -7 0 -22 7 -32 17 -12 11 -18 12 -18 4 0 -7 -9 -25 -19 -40 l-20 -27 42 -11 c23 -7 61 -28 85 -48 l42 -37 0 185 c0 183 0 185 -22 191 -31 8 -85 6 -131 -5z m109 -30 c8 -6 14 -22 14 -35 0 -24 0 -24 -36 -9 -20 8 -47 15 -60 15 -28 0 -40 16 -19 27 24 14 86 15 101 2z m-212 -185 c11 -28 7 -33 -50 -60 -30 -14 -60 -35 -67 -45 -19 -30 -41 -24 -32 8 7 30 22 43 39 37 14 -5 38 14 60 49 20 30 41 35 50 11z m230 -68 c-4 -12 -10 -12 -35 1 -16 8 -29 16 -29 18 0 3 12 11 28 19 25 13 28 13 34 -5 4 -10 5 -25 2 -33z m-224 -437 c0 -24 -8 -19 -57 29 -33 33 -29 35 17 12 28 -14 40 -27 40 -41z m220 21 c0 -11 -4 -20 -9 -20 -14 0 -23 18 -16 30 10 17 25 11 25 -10z m-267 -105 c26 -24 47 -54 47 -65 0 -38 -27 -22 -75 45 -56 80 -44 89 28 20z m257 -150 c-13 -15 -50 -21 -50 -8 0 4 12 17 28 29 21 18 28 19 30 8 2 -8 -2 -21 -8 -29z"/> <path d="M1892 2898 c-28 -28 -6 -68 39 -68 14 0 45 -6 67 -14 22 -8 42 -12 45 -9 3 2 1 18 -5 34 -17 50 -115 88 -146 57z m88 -40 c0 -9 -17 -10 -47 -2 -27 7 -30 21 -5 26 18 4 52 -12 52 -24z"/> <path d="M2617 2861 c-17 -6 -16 -8 8 -19 14 -7 33 -28 41 -48 16 -37 38 -43 57 -13 32 51 -41 106 -106 80z"/> <path d="M2568 2770 c2 -38 7 -70 12 -70 17 0 50 53 50 81 0 31 -23 59 -48 59 -15 0 -17 -10 -14 -70z"/> <path d="M1866 2794 c-28 -28 -11 -94 25 -94 5 0 15 16 23 35 8 19 26 40 40 47 40 17 31 28 -23 28 -32 0 -55 -6 -65 -16z"/> <path d="M1989 2776 c-33 -16 -37 -63 -9 -99 28 -36 37 -34 49 11 23 80 8 112 -40 88z"/> <path d="M1922 2622 c-30 -9 -29 -15 8 -60 l30 -37 16 23 c8 12 21 22 29 22 7 0 15 12 17 28 l4 27 14 -27 c7 -16 19 -28 26 -28 7 0 19 -6 26 -14 8 -7 24 -17 36 -20 12 -4 29 -21 38 -37 14 -28 14 -33 0 -54 -9 -13 -26 -27 -38 -31 -13 -4 -28 -15 -35 -24 -7 -10 -21 -20 -31 -22 -23 -6 -82 17 -82 32 0 19 -18 10 -54 -26 l-35 -35 34 -15 c99 -41 222 12 288 125 l18 31 -53 53 c-84 84 -168 113 -256 89z"/> <path d="M1843 2583 l-23 -15 25 -30 c32 -38 32 -78 0 -116 l-25 -30 26 -21 25 -20 32 35 c25 29 31 45 31 85 1 42 -3 54 -26 76 -16 15 -28 33 -28 40 0 17 -9 16 -37 -4z"/> <path d="M2469 2551 c-24 -17 -55 -41 -67 -54 l-23 -25 56 -60 c88 -95 159 -120 245 -86 44 18 50 29 21 39 -10 3 -26 14 -36 25 -18 20 -19 20 -39 1 -41 -38 -67 -36 -124 10 -36 30 -52 50 -52 66 0 32 17 63 35 63 8 0 19 9 25 19 5 11 20 22 32 24 21 4 21 4 -3 6 -14 0 -46 -12 -70 -28z"/> <path d="M2598 2569 c17 -5 32 -16 32 -24 0 -21 12 -18 39 10 l23 25 -63 -1 c-57 -1 -61 -2 -31 -10z"/> <path d="M2710 2563 c-39 -27 -45 -40 -45 -95 0 -47 3 -53 37 -81 32 -25 40 -28 53 -17 14 12 14 15 -5 35 -43 45 -41 131 4 148 9 4 16 11 16 17 0 16 -33 12 -60 -7z"/> <path d="M2004 2535 c21 -16 32 -13 21 4 -3 6 -14 11 -23 11 -15 -1 -15 -2 2 -15z"/> <path d="M2040 2535 c0 -17 2 -18 24 -9 23 9 20 24 -4 24 -11 0 -20 -7 -20 -15z"/> <path d="M2530 2544 c0 -4 8 -12 17 -19 18 -13 63 -1 63 17 0 16 -39 8 -43 -9 -4 -17 -5 -17 -6 0 -1 15 -31 26 -31 11z"/> <path d="M1970 2510 c0 -17 41 -33 53 -21 9 9 8 14 -3 21 -20 13 -50 13 -50 0z"/> <path d="M2060 2505 c-10 -12 -9 -16 5 -21 19 -8 67 15 59 28 -9 13 -51 9 -64 -7z"/> <path d="M2495 2511 c-6 -10 25 -31 44 -31 17 0 13 27 -5 34 -22 8 -32 8 -39 -3z"/> <path d="M2595 2507 c-13 -10 -15 -16 -6 -21 12 -8 41 10 41 25 0 13 -13 11 -35 -4z"/> <path d="M1950 2463 c0 -25 1 -26 16 -11 9 9 13 21 10 27 -13 20 -26 11 -26 -16z"/> <path d="M2121 2481 c-12 -8 -13 -12 -1 -26 12 -14 15 -14 28 -1 8 8 11 19 8 25 -9 13 -16 14 -35 2z"/> <path d="M2470 2470 c0 -13 5 -20 13 -17 6 2 12 10 12 17 0 7 -6 15 -12 18 -8 2 -13 -5 -13 -18z"/> <path d="M2632 2481 c-10 -6 -10 -10 3 -21 13 -11 15 -9 15 9 0 24 0 24 -18 12z"/> <path d="M1982 2448 c-7 -7 -12 -16 -12 -20 0 -13 37 -9 49 5 20 24 -14 38 -37 15z"/> <path d="M2055 2451 c-8 -13 33 -34 52 -27 12 5 13 9 3 21 -14 17 -46 20 -55 6z"/> <path d="M2510 2445 c-7 -9 -10 -18 -7 -21 10 -10 47 7 47 22 0 19 -24 18 -40 -1z"/> <path d="M2585 2450 c-7 -12 42 -36 53 -26 4 4 -2 14 -12 22 -23 17 -33 18 -41 4z"/> <path d="M2018 2416 c-10 -7 -18 -16 -18 -20 0 -11 28 -6 34 7 5 10 7 10 12 0 6 -13 34 -18 34 -7 0 7 -32 33 -40 33 -3 0 -13 -6 -22 -13z"/> <path d="M2545 2414 c-17 -13 -18 -16 -5 -24 11 -7 16 -4 18 11 3 19 4 19 16 3 9 -11 19 -15 31 -10 17 6 16 9 -9 21 -16 8 -29 15 -30 15 0 0 -10 -7 -21 -16z"/> <path d="M2291 2375 c-2 -43 -45 -161 -81 -217 -24 -40 -27 -50 -15 -55 24 -9 43 14 54 65 11 53 37 118 49 126 10 6 48 -94 57 -147 6 -39 28 -58 47 -39 7 7 2 22 -16 48 -23 34 -59 126 -84 214 l-10 35 -1 -30z"/> <path d="M2570 2261 c0 -16 -3 -43 -6 -60 -5 -26 -3 -31 13 -31 24 0 63 27 63 45 0 16 -48 75 -61 75 -5 0 -9 -13 -9 -29z"/> <path d="M1981 2259 c-39 -42 -22 -89 31 -89 24 0 28 4 27 28 -1 40 -13 75 -26 79 -6 2 -21 -6 -32 -18z"/> <path d="M2275 2188 c-21 -96 -63 -142 -94 -105 -9 11 -18 7 -50 -23 -60 -58 -153 -100 -218 -100 l-54 0 20 -25 c11 -14 23 -39 26 -55 l7 -30 161 0 c89 0 173 -3 187 -7 27 -7 28 -10 -27 64 l-21 29 42 56 43 57 40 -58 41 -58 -34 -43 c-19 -24 -33 -44 -32 -44 2 -1 85 0 184 2 l182 3 6 31 c3 18 16 42 28 55 l21 23 -54 0 c-69 0 -142 34 -208 95 -42 39 -50 43 -61 30 -7 -8 -18 -15 -25 -15 -20 0 -55 49 -55 77 0 35 -21 113 -30 113 -5 0 -16 -33 -25 -72z m30 -66 c0 -4 9 -21 19 -38 15 -26 25 -31 59 -32 52 -2 55 -7 27 -37 -30 -32 -35 -31 -56 3 -27 46 -50 56 -84 36 -15 -10 -33 -28 -39 -41 -10 -22 -31 -32 -31 -15 0 5 -12 14 -26 21 -20 9 -24 15 -15 25 6 7 22 11 36 8 33 -6 69 19 85 58 11 26 25 33 25 12z m-151 -124 c69 -31 31 -108 -54 -108 -29 0 -110 27 -110 37 0 8 49 46 84 66 36 20 47 21 80 5z m388 -24 c23 -20 43 -41 43 -47 0 -13 -61 -35 -101 -36 -37 -1 -84 32 -84 60 0 28 36 59 69 59 19 0 45 -13 73 -36z m-556 -67 l22 -33 -28 -2 c-32 -2 -63 27 -54 52 10 26 37 18 60 -17z m672 12 c4 -21 -24 -49 -49 -49 -24 0 -24 14 -1 45 19 27 45 29 50 4z"/> <path d="M2070 1968 c-45 -31 -47 -44 -9 -52 53 -10 75 -7 95 15 19 21 18 21 -5 40 -30 24 -41 24 -81 -3z"/> <path d="M2436 1974 c-22 -21 -20 -31 9 -50 18 -11 35 -14 65 -9 22 4 42 10 45 15 6 10 -66 60 -87 60 -9 0 -24 -7 -32 -16z"/> <path d="M1861 2208 c-9 -23 2 -56 23 -71 13 -9 87 1 101 14 5 6 3 9 -7 9 -9 0 -28 16 -42 35 -31 40 -63 45 -75 13z"/> <path d="M2657 2195 c-17 -19 -38 -35 -46 -35 -30 0 4 -19 46 -26 37 -6 43 -4 58 19 18 29 13 62 -11 71 -10 4 -27 -7 -47 -29z"/> <path d="M1991 2134 c-19 -9 -51 -16 -73 -16 -44 0 -52 -23 -18 -53 41 -37 140 9 140 66 0 22 -4 22 -49 3z"/> <path d="M2560 2125 c0 -14 11 -37 25 -50 29 -30 68 -32 95 -5 30 30 25 46 -12 46 -18 0 -48 8 -67 17 -43 21 -41 22 -41 -8z"/> <path d="M2261 1975 c-17 -20 -31 -39 -31 -43 0 -4 16 -25 36 -47 20 -22 30 -31 23 -20 -7 11 -22 30 -32 42 -19 22 -19 22 13 62 39 50 33 54 -9 6z"/> <path d="M1722 1547 c-21 -22 -22 -33 -22 -184 0 -201 -6 -193 143 -193 106 0 127 6 139 42 3 8 17 2 42 -17 48 -36 132 -41 185 -10 52 30 70 75 77 193 4 56 10 102 14 102 4 0 16 -12 26 -27 9 -15 26 -36 36 -47 29 -31 22 -64 -25 -120 -57 -67 -60 -72 -48 -95 26 -48 111 -18 111 39 0 30 25 64 41 54 8 -5 42 -62 44 -74 0 -3 5 -13 11 -23 10 -18 28 -20 124 -16 8 0 20 0 25 -1 6 -1 51 -2 102 -1 100 1 123 12 123 57 0 33 -18 30 -22 -3 l-3 -28 -110 0 -110 0 0 172 0 173 101 0 102 0 6 -32 c6 -31 -3 -55 -11 -30 -11 30 -36 42 -89 42 l-54 0 0 -76 0 -77 48 6 c26 2 55 8 65 12 14 6 17 2 17 -19 0 -23 -2 -25 -19 -16 -11 5 -40 10 -65 10 l-46 0 0 -75 0 -75 60 0 c47 0 64 4 80 20 29 29 25 46 -5 26 -14 -9 -25 -14 -25 -11 0 3 -9 1 -19 -5 -11 -5 -26 -7 -34 -4 -19 7 -28 51 -16 80 7 20 12 22 40 14 23 -7 37 -5 55 7 29 18 28 17 8 49 -15 22 -21 24 -60 18 -43 -6 -44 -6 -45 22 -2 41 2 58 13 65 13 8 47 0 77 -20 21 -14 25 -13 37 4 19 26 17 49 -5 69 -24 21 -183 29 -221 10 -30 -15 -75 -62 -120 -126 l-32 -47 56 -80 c31 -44 61 -83 66 -86 21 -13 8 -21 -35 -20 -39 0 -44 2 -39 20 3 13 -10 41 -37 78 l-41 58 -40 -58 c-33 -47 -38 -60 -29 -75 15 -24 16 -23 -29 -24 -40 -1 -51 8 -26 23 7 4 36 40 63 79 l51 71 -44 64 c-25 35 -54 73 -66 86 l-21 23 50 0 c46 0 51 -2 46 -20 -3 -12 7 -39 28 -71 l33 -52 22 28 c41 52 49 74 36 96 -11 18 -9 19 34 19 40 0 45 2 34 15 -13 16 -56 11 -77 -9 -10 -9 -19 -36 -22 -68 -1 -5 -10 -8 -20 -8 -13 0 -23 11 -31 35 -17 53 -51 71 -103 57 -23 -6 -46 -7 -50 -3 -13 13 -57 0 -67 -20 -6 -10 -6 -27 -1 -41 7 -19 9 -160 2 -203 -2 -19 -55 -43 -82 -38 -40 7 -49 36 -51 168 l-3 120 -29 14 c-26 12 -33 12 -55 0 -25 -14 -26 -19 -27 -102 0 -48 -3 -89 -7 -93 -3 -3 -1 -17 5 -30 8 -17 7 -40 -2 -85 l-13 -61 -106 4 -106 3 0 172 0 173 30 0 30 0 -3 -165 -3 -166 62 3 c56 3 64 6 87 36 21 28 22 31 6 25 -10 -3 -30 -15 -44 -25 -14 -9 -34 -16 -45 -13 -11 2 -23 4 -28 4 -4 1 -7 66 -6 146 2 127 0 147 -16 165 -24 27 -57 25 -83 -3z m332 -24 c-15 -30 -11 -227 5 -255 27 -51 102 -63 148 -24 27 24 28 27 31 141 3 76 0 121 -7 128 -18 18 -12 27 19 27 31 0 37 -8 21 -25 -5 -6 -11 -63 -13 -127 -4 -135 -16 -163 -86 -188 -37 -13 -47 -13 -84 0 -69 25 -82 53 -88 188 -3 64 -10 125 -14 135 -7 15 -3 17 34 17 37 0 41 -2 34 -17z m546 -138 c0 -58 -3 -105 -6 -105 -8 0 -54 49 -54 57 0 4 -7 14 -15 23 -15 16 -10 60 6 60 5 0 9 7 9 16 0 8 5 12 10 9 6 -3 10 0 10 7 0 15 19 38 32 38 4 0 8 -47 8 -105z"/> <path d="M472 1008 c-13 -16 -18 -76 -9 -103 16 -48 94 -47 115 0 7 15 8 25 2 25 -6 0 -10 -7 -10 -15 0 -9 -12 -21 -26 -27 -23 -11 -29 -10 -45 11 -23 28 -26 101 -5 101 11 0 13 -10 9 -38 -4 -27 -1 -42 11 -51 27 -22 49 4 43 51 -3 24 -1 38 6 38 6 0 7 3 4 6 -4 4 -13 2 -20 -5 -11 -9 -17 -8 -27 4 -15 18 -34 19 -48 3z"/> <path d="M620 1005 c-10 -12 -10 -21 -1 -38 6 -12 9 -33 6 -46 -4 -23 -4 -23 15 -6 24 22 25 38 5 55 -19 15 -19 30 -2 30 8 0 19 -10 25 -22 l11 -23 7 23 c3 12 11 22 18 23 14 1 -33 17 -55 18 -9 1 -22 -6 -29 -14z"/> <path d="M766 1001 c-10 -11 -17 -28 -16 -38 4 -31 1 -36 -15 -23 -9 8 -12 22 -9 43 l6 32 -16 -25 c-8 -14 -18 -31 -22 -38 -8 -16 34 -62 50 -56 7 3 19 -2 26 -11 17 -20 74 -19 91 2 13 15 12 15 -10 4 -42 -23 -68 -1 -72 58 -3 40 -1 51 11 51 11 0 15 -12 15 -47 0 -41 3 -48 20 -48 17 0 20 8 23 55 3 50 2 53 -11 36 -14 -19 -15 -19 -21 2 -9 27 -27 28 -50 3z"/> <path d="M913 1001 c-7 -12 -13 -32 -13 -46 0 -14 -4 -25 -9 -25 -6 0 -7 16 -4 37 4 26 3 34 -5 29 -18 -11 -15 -76 3 -76 9 0 20 -11 25 -24 8 -21 15 -23 63 -23 53 0 55 1 59 29 3 16 1 31 -4 34 -4 3 -8 15 -8 28 0 48 -83 76 -107 37z m76 -10 c9 -6 11 -18 8 -33 -4 -15 0 -33 9 -47 9 -12 14 -25 11 -28 -9 -9 -28 8 -37 33 -13 33 -30 30 -30 -6 0 -16 -4 -30 -10 -30 -6 0 -10 27 -10 60 0 56 2 60 23 60 12 0 28 -4 36 -9z"/> <path d="M950 970 c0 -13 5 -20 13 -17 6 2 12 10 12 17 0 7 -6 15 -12 18 -8 2 -13 -5 -13 -18z"/> <path d="M1070 1005 c-10 -12 -10 -25 0 -62 13 -56 26 -73 50 -73 16 0 30 26 36 70 1 8 5 24 10 35 7 20 7 20 -14 1 -22 -19 -22 -19 -22 2 0 11 8 23 18 25 10 3 8 5 -8 5 -14 -1 -32 2 -41 6 -9 4 -21 1 -29 -9z m41 -27 c23 -29 26 -98 4 -98 -11 0 -15 11 -15 39 0 22 -6 44 -15 51 -8 7 -15 16 -15 21 0 16 22 9 41 -13z"/> <path d="M1583 1008 c-6 -7 -14 -25 -18 -41 -9 -35 -16 -34 -36 6 -21 43 -55 48 -70 10 -6 -15 -16 -38 -22 -50 -6 -13 -8 -26 -4 -29 3 -4 17 18 30 47 l24 54 23 -50 c27 -62 28 -66 14 -72 -6 -2 -14 5 -17 17 -7 27 -47 28 -47 0 0 -11 3 -19 8 -18 4 1 18 -2 31 -6 15 -5 32 -3 47 5 20 10 27 10 43 -5 19 -17 20 -17 38 10 10 16 26 37 36 46 18 19 22 45 9 65 -12 18 -76 27 -89 11z m77 -23 c16 -19 -3 -45 -32 -45 -15 0 -19 -6 -16 -27 2 -15 -2 -28 -9 -30 -10 -4 -13 12 -13 56 0 61 0 61 29 61 16 0 34 -7 41 -15z"/> <path d="M1610 970 c0 -13 5 -20 13 -17 6 2 12 10 12 17 0 7 -6 15 -12 18 -8 2 -13 -5 -13 -18z"/> <path d="M1718 1007 c-21 -9 -25 -15 -18 -27 8 -13 10 -12 10 3 0 14 9 17 45 17 25 0 45 4 45 8 0 13 -53 12 -82 -1z"/> <path d="M1850 1005 c-24 -29 -19 -84 10 -115 25 -27 31 -29 59 -19 17 6 31 15 31 20 0 5 -11 3 -25 -3 -21 -9 -28 -8 -45 7 -25 23 -29 105 -5 105 11 0 14 -8 10 -33 -3 -20 0 -40 9 -52 12 -17 16 -17 30 -5 19 15 19 86 -1 83 -6 -1 -17 4 -23 12 -16 19 -34 19 -50 0z"/> <path d="M2002 1007 c-16 -19 -18 -103 -3 -121 7 -9 30 -14 58 -14 27 0 41 3 34 7 -7 5 -18 19 -24 31 -15 28 -31 27 -32 -2 0 -12 -6 -23 -12 -25 -10 -4 -13 12 -13 56 0 61 0 61 29 61 36 0 59 -24 42 -44 -9 -11 -9 -19 1 -35 11 -19 23 -26 31 -19 1 2 16 -7 34 -20 24 -17 36 -20 55 -13 21 9 21 10 3 12 -11 1 -26 1 -32 0 -9 -1 -13 16 -13 58 l0 60 33 3 32 4 -29 8 c-25 8 -33 5 -52 -17 -14 -16 -20 -34 -17 -47 3 -11 0 -20 -6 -20 -6 0 -11 12 -11 28 0 15 -8 34 -18 42 -23 20 -76 24 -90 7z"/> <path d="M2283 1013 c-7 -2 -13 -17 -13 -31 0 -15 -4 -32 -8 -38 -8 -14 -60 -15 -68 -3 -5 8 10 13 29 10 11 -2 8 14 -5 27 -25 25 -38 13 -38 -33 0 -38 3 -45 19 -45 11 0 23 5 26 10 11 18 35 10 45 -15 7 -18 17 -25 35 -25 15 0 24 4 20 10 -3 5 -12 7 -20 3 -12 -4 -15 6 -15 56 l0 61 34 0 c59 0 86 -61 44 -100 -32 -30 -15 -35 20 -5 27 23 30 29 21 57 -5 18 -14 37 -21 44 -14 13 -86 25 -105 17z"/> <path d="M2515 997 c-20 -28 -19 -91 1 -111 24 -25 43 -19 57 17 28 67 -21 147 -58 94z m35 -58 c0 -79 -22 -76 -24 4 -1 40 3 57 12 57 8 0 12 -19 12 -61z"/> <path d="M2609 1006 c-18 -9 -23 -18 -20 -36 2 -14 5 -37 5 -52 2 -53 16 -28 16 27 0 30 3 55 6 55 4 0 22 -17 41 -37 l34 -38 -7 34 c-4 23 -2 37 7 43 11 7 9 8 -4 4 -10 -3 -26 -2 -36 3 -11 7 -26 5 -42 -3z"/> <path d="M2831 1007 c-15 -19 -17 -103 -1 -122 7 -8 26 -14 44 -14 l31 1 -30 7 c-29 6 -30 9 -33 64 l-3 57 38 1 c30 0 34 2 18 9 -30 13 -51 12 -64 -3z"/> <path d="M2962 1007 c-14 -17 -4 -83 14 -98 8 -6 14 -17 14 -25 0 -12 36 -12 48 1 11 11 42 99 37 104 -3 2 -15 -19 -27 -47 -12 -29 -25 -52 -29 -52 -6 0 -16 21 -46 98 -3 6 1 12 9 12 9 0 20 -18 27 -41 14 -46 14 -46 29 -2 10 30 9 33 -20 48 -38 18 -43 19 -56 2z"/> <path d="M3112 1008 c-7 -7 -12 -27 -12 -45 0 -20 -5 -33 -12 -33 -8 0 -9 -3 -3 -8 6 -4 15 -16 21 -27 6 -11 22 -22 35 -23 13 -2 20 0 16 5 -5 4 -14 8 -20 8 -8 0 -13 22 -15 58 -3 52 -1 57 18 57 11 0 20 5 20 10 0 14 -33 13 -48 -2z"/> <path d="M3243 1008 c-6 -7 -13 -31 -16 -54 -9 -58 10 -82 67 -82 25 0 50 6 56 13 12 15 3 87 -14 111 -16 21 -79 29 -93 12z m77 -23 c10 -12 10 -18 1 -29 -9 -11 -9 -19 1 -35 7 -12 16 -21 21 -21 4 0 5 -4 2 -10 -11 -17 -24 -11 -40 20 -19 37 -37 39 -33 4 2 -15 -3 -29 -9 -31 -10 -3 -13 12 -13 56 0 61 0 61 29 61 16 0 34 -7 41 -15z"/> <path d="M3276 983 c-12 -12 -6 -33 9 -33 8 0 15 6 15 14 0 17 -14 28 -24 19z"/> <path d="M3391 1007 c-9 -12 -8 -26 7 -71 23 -67 25 -70 50 -62 12 4 22 22 30 54 5 26 8 49 6 51 -10 10 -33 -36 -34 -66 0 -18 -4 -33 -10 -33 -5 0 -10 15 -10 34 0 19 -9 45 -21 60 l-20 26 20 0 c12 0 21 -6 21 -14 0 -23 19 -29 27 -9 4 10 11 21 17 25 7 5 3 8 -9 8 -11 0 -29 3 -41 6 -12 3 -26 -1 -33 -9z"/> <path d="M3616 1006 c-13 -10 -20 -49 -17 -98 2 -25 28 -47 51 -41 23 6 16 25 -8 21 -14 -3 -18 7 -20 55 l-3 57 34 0 c61 0 88 -59 46 -101 -30 -30 -17 -35 17 -6 l28 25 11 -22 c7 -14 21 -21 42 -22 17 -1 38 -4 47 -7 8 -3 18 -2 21 3 4 6 1 10 -5 10 -19 0 -50 62 -39 77 11 13 4 33 -12 33 -5 0 -9 -25 -9 -56 0 -76 -22 -67 -24 9 l-1 58 29 -3 c33 -3 59 -34 39 -46 -9 -6 -5 -16 13 -37 14 -17 23 -25 20 -18 -13 25 15 23 38 -4 13 -15 28 -25 32 -21 4 5 0 16 -9 26 -19 21 -22 54 -7 83 16 28 65 25 85 -5 18 -27 11 -74 -11 -83 -8 -3 -14 -9 -14 -15 0 -12 60 23 61 37 0 5 4 0 9 -13 15 -36 39 -38 70 -6 45 49 53 71 36 96 -21 30 -81 35 -96 8 -10 -19 -13 -19 -40 -5 -61 32 -117 14 -134 -42 -9 -30 -26 -29 -26 0 0 33 -20 56 -56 63 -25 5 -36 1 -53 -17 -20 -21 -22 -22 -40 -5 -23 21 -84 28 -105 12z m534 -21 c10 -12 10 -18 0 -30 -7 -8 -18 -15 -26 -15 -7 0 -14 -11 -16 -25 -5 -45 -21 -22 -22 33 -1 50 0 52 25 52 15 0 32 -7 39 -15z"/> <path d="M4110 970 c0 -13 5 -20 13 -17 6 2 12 10 12 17 0 7 -6 15 -12 18 -8 2 -13 -5 -13 -18z"/> <path d="M336 994 c-10 -27 -7 -99 6 -112 7 -7 28 -12 48 -11 31 0 32 1 12 9 -12 5 -29 7 -37 4 -12 -5 -15 5 -15 55 0 45 4 61 14 61 10 0 12 -11 8 -45 -4 -36 -1 -46 12 -51 24 -9 44 12 28 28 -7 7 -12 21 -12 33 0 40 -51 63 -64 29z"/> <path d="M1301 991 c-11 -11 -22 -17 -25 -13 -3 3 -6 -9 -6 -26 0 -45 35 -82 76 -82 18 0 36 5 40 11 4 7 0 9 -14 5 -53 -17 -91 40 -61 92 21 36 18 41 -10 13z"/> <path d="M1360 1003 c14 -3 29 -10 33 -17 6 -7 7 -6 4 4 -2 8 -16 16 -33 17 -25 1 -26 0 -4 -4z"/> <path d="M1811 986 c-1 -16 -4 -17 -13 -8 -22 22 -29 12 -27 -40 2 -33 -1 -53 -9 -56 -8 -2 -12 13 -12 53 0 41 -3 55 -12 52 -16 -5 -14 -82 2 -102 19 -23 39 -18 51 11 5 15 7 29 4 32 -3 3 2 16 11 29 8 13 13 30 10 36 -2 7 -5 3 -5 -7z"/> <path d="M1959 988 c-1 -7 -2 -28 -4 -46 -2 -22 1 -30 7 -24 12 12 17 71 6 78 -4 3 -8 -1 -9 -8z"/> <path d="M575 977 c-4 -10 -5 -21 -1 -24 10 -10 18 4 13 24 -4 17 -4 17 -12 0z"/> <path d="M1332 978 c-29 -29 -1 -88 34 -74 16 6 16 8 0 24 -21 24 -21 46 0 38 14 -5 15 -4 4 9 -15 18 -22 19 -38 3z"/> <path d="M2036 974 c-9 -22 -8 -24 9 -24 8 0 15 9 15 20 0 24 -15 27 -24 4z"/> <path d="M2310 945 c0 -38 3 -45 20 -45 12 0 25 10 32 25 9 21 8 28 -7 45 -30 33 -45 25 -45 -25z"/> <path d="M2701 935 l-1 -60 -38 44 -38 45 4 -35 c3 -27 10 -38 34 -48 28 -13 32 -12 45 4 14 20 15 34 3 80 -6 24 -8 19 -9 -30z"/> <path d="M2867 984 c-16 -16 -5 -32 23 -36 28 -4 29 -3 17 16 -15 22 -30 30 -40 20z"/> <path d="M3147 983 c-17 -17 -5 -33 25 -33 30 0 31 0 13 20 -19 21 -28 24 -38 13z"/> <path d="M3647 983 c-4 -3 -7 -24 -7 -45 0 -31 3 -38 20 -38 12 0 25 10 32 25 9 21 8 28 -7 45 -19 21 -28 24 -38 13z"/> <path d="M3950 976 c-16 -20 -9 -56 13 -70 15 -9 21 -7 33 8 18 25 18 41 -2 60 -19 20 -28 20 -44 2z"/> <path d="M2865 930 c-11 -18 10 -33 34 -25 21 6 30 25 12 25 -5 0 -16 3 -24 6 -8 3 -18 0 -22 -6z"/> <path d="M3140 920 c0 -20 15 -25 44 -14 26 10 18 29 -14 31 -24 2 -30 -2 -30 -17z"/> <path d="M660 916 c0 -8 -8 -22 -17 -32 -16 -16 -16 -16 5 -10 11 4 30 2 41 -3 13 -7 22 -8 26 -1 3 5 1 10 -5 10 -6 0 -16 11 -22 25 -12 27 -28 33 -28 11z"/> </g> </svg> 